<?xml version="1.0" encoding="utf-8"?>
<!-- Generator: Fusion 360, Shaper Origin Export Add-In, Version 1.7.0  -->
<svg xmlns="http://www.w3.org/2000/svg" xmlns:xlink="http://www.w3.org/1999/xlink" xmlns:shaper="http://www.shapertools.com/namespaces/shaper" shaper:fusionaddin="version:1.7.0" width="7.62cm" height="5.32cm" version="1.1" x="0cm" y="0cm" viewBox="0 0 7.62 5.32" enable-background="new 0 0 7.62 5.32" xml:space="preserve"><path d="M6.6,2.75 L2.4965401,2.75 A0.5,0.5 270 0,0 1.9965401,3.25 L1.9965401,4.5 A0.3,0.3 0 0,1 1.6965401,4.8 L0.3,4.8 A0.3,0.3 90 0,1 -0,4.5 L0,0.75 A0.25,0.25 180 0,1 0.25,0.5 L1,0.5 A0.1,0.1 90 0,0 1.1,0.4 L1.1,0.1 A0.1,0.1 180 0,1 1.2,0 L6.65,0 A0.05,0.05 270 0,1 6.7,0.05 L6.7,0.1 A0.2,0.2 180 0,0 6.9,0.3 L7.05,0.3 A0.05,0.05 270 0,1 7.1,0.35 L7.1,2.2459707 7.1,2.4 A0.05,0.05 0 0,1 7.05,2.45 L6.9,2.45 A0.2,0.2 270 0,0 6.7,2.65 A0.1,0.1 0 0,1 6.6,2.75z" transform="matrix(1,0,0,-1,0.26,5.06)" stroke="rgb(100,100,100)" stroke-width="0.0010cm" stroke-linecap="round" stroke-linejoin="round" fill="none" /><path d="M-0,2.75 L1,2.75 A0.1,0.1 90 0,0 1.1,2.65 L1.1,2.35 A0.1,0.1 0 0,0 1,2.25 L-0,2.25" transform="matrix(1,0,0,-1,0.26,5.06)" stroke="rgb(100,100,100)" stroke-width="0.0010cm" stroke-linecap="round" stroke-linejoin="round" fill="none" /><path d="M0,0.75 L0,0.3 A0.3,0.3 180 0,1 0.3,-0 L1.2,-0" transform="matrix(1,0,0,-1,0.26,5.06)" stroke="rgb(100,100,100)" stroke-width="0.0010cm" stroke-linecap="round" stroke-linejoin="round" fill="none" /><path d="M6.9,2.85 L2.5565401,2.85 A0.4,0.4 270 0,0 2.1565401,3.25 L2.1565401,4.5 A0.4,0.4 0 0,1 1.7565401,4.9 L0.3,4.9 A0.4,0.4 90 0,1 -0.1,4.5 L-0.1,0.3 A0.4,0.4 180 0,1 0.3,-0.1 L6.8,-0.1 6.9,-0.1 A0.3,0.3 270 0,1 7.2,0.2 L7.2,0.3 7.2,2.45 7.2,2.5499999 A0.3,0.3 0 0,1 6.9,2.85z" transform="matrix(1,0,0,-1,0.26,5.06)" stroke="rgb(100,100,100)" stroke-width="0.0010cm" stroke-linecap="round" stroke-linejoin="round" fill="none" /><path d="M0.78,2.39 a0.1,0.1 0 1,1 0.2,0 a0.1,0.1 0 1,1 -0.2,0z" transform="matrix(1,0,0,-1,0.26,5.06)" stroke="rgb(100,100,100)" stroke-width="0.0010cm" stroke-linecap="round" stroke-linejoin="round" fill="none" /><path d="M0.78,0.19 a0.1,0.1 0 1,1 0.2,0 a0.1,0.1 0 1,1 -0.2,0z" transform="matrix(1,0,0,-1,0.26,5.06)" stroke="rgb(100,100,100)" stroke-width="0.0010cm" stroke-linecap="round" stroke-linejoin="round" fill="none" /><path d="M-0.2397736,0.2925487 A0.5577549,0.5577549 180.5348162 0,1 0.317957,-0.26 L6.8,-0.26 6.86,-0.26 A0.5,0.5 270 0,1 7.36,0.24 L7.36,0.32 7.36,2.51 A0.5,0.5 0 0,1 6.86,3.01 L2.6165401,3.01 A0.3,0.3 270 0,0 2.3165401,3.31 L2.3165401,4.56 A0.5,0.5 0 0,1 1.8165401,5.06 L0.24,5.06 A0.5,0.5 90 0,1 -0.26,4.56 L-0.2397736,0.2925487z" transform="matrix(1,0,0,-1,0.26,5.06)" stroke="rgb(100,100,100)" stroke-width="0.0010cm" stroke-linecap="round" stroke-linejoin="round" fill="none" /><path d="M0.6,0.5 L0.6,0" transform="matrix(1,0,0,-1,0.26,5.06)" stroke="rgb(100,100,100)" stroke-width="0.0010cm" stroke-linecap="round" stroke-linejoin="round" fill="none" /><path d="M5.45,1.06 a0.15,0.15 0 1,1 0.3,0 a0.15,0.15 0 1,1 -0.3,0z" transform="matrix(1,0,0,-1,0.26,5.06)" stroke="rgb(100,100,100)" stroke-width="0.0010cm" stroke-linecap="round" stroke-linejoin="round" fill="none" /><path d="M7.1,0.35 L7.1,0.3 7.1,0.2 A0.2,0.2 0 0,0 6.9,0 L6.8,0 6.65,0 6.6399999,0" transform="matrix(1,0,0,-1,0.26,5.06)" stroke="rgb(100,100,100)" stroke-width="0.0010cm" stroke-linecap="round" stroke-linejoin="round" fill="none" /><path d="M0.6,2.25 L0.6,2.75" transform="matrix(1,0,0,-1,0.26,5.06)" stroke="rgb(100,100,100)" stroke-width="0.0010cm" stroke-linecap="round" stroke-linejoin="round" fill="none" /><path d="M1.0720573,4.08 L0.4020573,4.08 0.4020573,4.8 1.0720573,4.8 1.0720573,4.08z" transform="matrix(1,0,0,-1,0.26,5.06)" stroke="rgb(100,100,100)" stroke-width="0.0010cm" stroke-linecap="round" stroke-linejoin="round" fill="none" /><path d="M1.1720573,4.8 L1.1720573,3.98 0.3020573,3.98 0.3020573,4.8" transform="matrix(1,0,0,-1,0.26,5.06)" stroke="rgb(100,100,100)" stroke-width="0.0010cm" stroke-linecap="round" stroke-linejoin="round" fill="none" /><path d="M7.1,2.4 L7.1,2.5499999 A0.2,0.2 0 0,1 6.9,2.75 L6.7,2.75 6.6,2.75" transform="matrix(1,0,0,-1,0.26,5.06)" stroke="rgb(100,100,100)" stroke-width="0.0010cm" stroke-linecap="round" stroke-linejoin="round" fill="none" /></svg>